<svg width="1279" height="1279" viewBox="0 0 1279 1279" fill="none" xmlns="http://www.w3.org/2000/svg">
<g clip-path="url(#clip0_215_150)">
<rect width="1279" height="1279" rx="639.5" fill="white"/>
<circle cx="639.588" cy="639.5" r="639.5" transform="rotate(90 639.588 639.5)" fill="#ECEFF4"/>
<path d="M711.954 309.432L706.999 963.959L587.471 963.054L305.832 548.943L301.038 548.907L297.919 960.862L159.536 959.815L164.49 305.288L285.936 306.207L565.34 719.982L571.093 720.026L574.209 308.39L711.954 309.432Z" fill="#EBCB8B"/>
<path d="M711.954 309.432L706.999 963.959L587.471 963.054L305.832 548.943L301.038 548.907L297.919 960.862L159.536 959.815L164.49 305.288L285.936 306.207L565.34 719.982L571.093 720.026L574.209 308.39L711.954 309.432Z" fill="black" fill-opacity="0.1"/>
<path d="M563.918 296.776L717.918 296.981L707.032 963.967L586.532 963.807L571.354 721.787L563.918 296.776Z" fill="#EBCB8B"/>
<path d="M307.002 972.418C307.011 972.977 306.56 973.436 306.001 973.435L154.035 973.233C153.477 973.233 153.027 972.775 153.036 972.217L163.889 307.231C163.898 306.685 164.344 306.247 164.89 306.247L283.467 306.405C283.995 306.405 284.431 306.816 284.464 307.342L299.584 548.426L307.002 972.418Z" fill="#EBCB8B"/>
<path d="M772.331 890.073L773.305 390.438L973.437 390.827C1010.21 390.899 1040.87 396.407 1065.42 407.352C1089.96 418.297 1108.4 433.459 1120.73 452.837C1133.06 472.053 1139.2 494.184 1139.15 519.231C1139.11 538.748 1135.17 555.899 1127.33 570.684C1119.5 585.307 1108.73 597.321 1095.05 606.728C1081.53 615.972 1066.06 622.529 1048.64 626.398L1048.63 631.278C1067.66 632.128 1085.47 637.53 1102.05 647.483C1118.79 657.437 1132.35 671.369 1142.72 689.28C1153.1 707.029 1158.27 728.182 1158.22 752.741C1158.17 779.252 1151.53 802.903 1138.31 823.696C1125.26 844.326 1105.94 860.634 1080.37 872.619C1054.81 884.605 1023.31 890.562 985.887 890.489L772.331 890.073ZM878.179 803.916L964.333 804.084C993.784 804.141 1015.27 798.572 1028.8 787.376C1042.33 776.017 1049.11 760.905 1049.14 742.038C1049.17 728.214 1045.86 716.009 1039.21 705.424C1032.56 694.84 1023.06 686.526 1010.7 680.484C998.511 674.443 983.954 671.406 967.033 671.373L878.438 671.2L878.179 803.916ZM878.577 599.719L956.921 599.872C971.402 599.9 984.261 597.404 995.498 592.384C1006.9 587.202 1015.86 579.9 1022.39 570.48C1029.08 561.06 1032.43 549.762 1032.46 536.588C1032.5 518.535 1026.1 503.966 1013.26 492.882C1000.59 481.797 982.545 476.232 959.115 476.187L878.818 476.03L878.577 599.719Z" fill="#A3BE8C"/>
<path d="M772.331 890.073L773.305 390.438L973.437 390.827C1010.21 390.899 1040.87 396.407 1065.42 407.352C1089.96 418.297 1108.4 433.459 1120.73 452.837C1133.06 472.053 1139.2 494.184 1139.15 519.231C1139.11 538.748 1135.17 555.899 1127.33 570.684C1119.5 585.307 1108.73 597.321 1095.05 606.728C1081.53 615.972 1066.06 622.529 1048.64 626.398L1048.63 631.278C1067.66 632.128 1085.47 637.53 1102.05 647.483C1118.79 657.437 1132.35 671.369 1142.72 689.28C1153.1 707.029 1158.27 728.182 1158.22 752.741C1158.17 779.252 1151.53 802.903 1138.31 823.696C1125.26 844.326 1105.94 860.634 1080.37 872.619C1054.81 884.605 1023.31 890.562 985.887 890.489L772.331 890.073ZM878.179 803.916L964.333 804.084C993.784 804.141 1015.27 798.572 1028.8 787.376C1042.33 776.017 1049.11 760.905 1049.14 742.038C1049.17 728.214 1045.86 716.009 1039.21 705.424C1032.56 694.84 1023.06 686.526 1010.7 680.484C998.511 674.443 983.954 671.406 967.033 671.373L878.438 671.2L878.179 803.916ZM878.577 599.719L956.921 599.872C971.402 599.9 984.261 597.404 995.498 592.384C1006.9 587.202 1015.86 579.9 1022.39 570.48C1029.08 561.06 1032.43 549.762 1032.46 536.588C1032.5 518.535 1026.1 503.966 1013.26 492.882C1000.59 481.797 982.545 476.232 959.115 476.187L878.818 476.03L878.577 599.719Z" fill="black" fill-opacity="0.2"/>
<path d="M707.798 962.195L709.096 296.139L976.453 296.659C1025.58 296.755 1066.54 304.098 1099.33 318.689C1132.12 333.279 1156.75 353.491 1173.22 379.324C1189.69 404.941 1197.9 434.444 1197.83 467.833C1197.78 493.851 1192.52 516.715 1182.05 536.425C1171.58 555.918 1157.2 571.934 1138.92 584.474C1120.85 596.798 1100.18 605.538 1076.92 610.697L1076.9 617.201C1102.33 618.335 1126.12 625.536 1148.26 638.805C1170.63 652.074 1188.74 670.647 1202.61 694.524C1216.47 718.184 1223.37 746.384 1223.31 779.123C1223.24 814.464 1214.37 845.993 1196.71 873.711C1179.27 901.213 1153.47 922.953 1119.31 938.93C1085.16 954.908 1043.08 962.849 993.088 962.751L707.798 962.195ZM849.2 847.342L964.294 847.566C1003.64 847.642 1032.34 840.218 1050.41 825.293C1068.48 810.151 1077.54 790.005 1077.59 764.854C1077.63 746.425 1073.2 730.155 1064.32 716.045C1055.44 701.934 1042.74 690.852 1026.24 682.798C1009.95 674.744 990.505 670.695 967.899 670.651L849.545 670.42L849.2 847.342ZM849.73 575.13L954.391 575.334C973.736 575.371 990.914 572.044 1005.93 565.352C1021.15 558.444 1033.13 548.71 1041.85 536.152C1050.78 523.594 1055.27 508.534 1055.3 490.972C1055.35 466.905 1046.8 447.484 1029.66 432.707C1012.73 417.93 988.621 410.512 957.32 410.451L850.051 410.242L849.73 575.13Z" fill="#A3BE8C"/>
<circle cx="639.588" cy="639.5" r="639.5" transform="rotate(90 639.588 639.5)" fill="#ECEFF4"/>
<path d="M711.954 309.432L706.999 963.959L587.471 963.054L305.832 548.943L301.038 548.907L297.919 960.862L159.536 959.815L164.49 305.288L285.936 306.207L565.34 719.982L571.093 720.026L574.209 308.39L711.954 309.432Z" fill="#EBCB8B"/>
<path d="M711.954 309.432L706.999 963.959L587.471 963.054L305.832 548.943L301.038 548.907L297.919 960.862L159.536 959.815L164.49 305.288L285.936 306.207L565.34 719.982L571.093 720.026L574.209 308.39L711.954 309.432Z" fill="black" fill-opacity="0.1"/>
<path d="M563.918 296.776L717.918 296.981L707.032 963.967L586.532 963.807L571.354 721.787L563.918 296.776Z" fill="#EBCB8B"/>
<path d="M307.002 972.418C307.011 972.977 306.56 973.436 306.001 973.435L154.035 973.233C153.477 973.233 153.027 972.775 153.036 972.217L163.889 307.231C163.898 306.685 164.344 306.247 164.89 306.247L283.467 306.405C283.995 306.405 284.431 306.816 284.464 307.342L299.584 548.426L307.002 972.418Z" fill="#EBCB8B"/>
<path d="M772.331 890.073L773.305 390.438L973.437 390.827C1010.21 390.899 1040.87 396.407 1065.42 407.352C1089.96 418.297 1108.4 433.459 1120.73 452.837C1133.06 472.053 1139.2 494.184 1139.15 519.231C1139.11 538.748 1135.17 555.899 1127.33 570.684C1119.5 585.307 1108.73 597.321 1095.05 606.728C1081.53 615.972 1066.06 622.529 1048.64 626.398L1048.63 631.278C1067.66 632.128 1085.47 637.53 1102.05 647.483C1118.79 657.437 1132.35 671.369 1142.72 689.28C1153.1 707.029 1158.27 728.182 1158.22 752.741C1158.17 779.252 1151.53 802.903 1138.31 823.696C1125.26 844.326 1105.94 860.634 1080.37 872.619C1054.81 884.605 1023.31 890.562 985.887 890.489L772.331 890.073ZM878.179 803.916L964.333 804.084C993.784 804.141 1015.27 798.572 1028.8 787.376C1042.33 776.017 1049.11 760.905 1049.14 742.038C1049.17 728.214 1045.86 716.009 1039.21 705.424C1032.56 694.84 1023.06 686.526 1010.7 680.484C998.511 674.443 983.954 671.406 967.033 671.373L878.438 671.2L878.179 803.916ZM878.577 599.719L956.921 599.872C971.402 599.9 984.261 597.404 995.498 592.384C1006.9 587.202 1015.86 579.9 1022.39 570.48C1029.08 561.06 1032.43 549.762 1032.46 536.588C1032.5 518.535 1026.1 503.966 1013.26 492.882C1000.59 481.797 982.545 476.232 959.115 476.187L878.818 476.03L878.577 599.719Z" fill="#A3BE8C"/>
<path d="M772.331 890.073L773.305 390.438L973.437 390.827C1010.21 390.899 1040.87 396.407 1065.42 407.352C1089.96 418.297 1108.4 433.459 1120.73 452.837C1133.06 472.053 1139.2 494.184 1139.15 519.231C1139.11 538.748 1135.17 555.899 1127.33 570.684C1119.5 585.307 1108.73 597.321 1095.05 606.728C1081.53 615.972 1066.06 622.529 1048.64 626.398L1048.63 631.278C1067.66 632.128 1085.47 637.53 1102.05 647.483C1118.79 657.437 1132.35 671.369 1142.72 689.28C1153.1 707.029 1158.27 728.182 1158.22 752.741C1158.17 779.252 1151.53 802.903 1138.31 823.696C1125.26 844.326 1105.94 860.634 1080.37 872.619C1054.81 884.605 1023.31 890.562 985.887 890.489L772.331 890.073ZM878.179 803.916L964.333 804.084C993.784 804.141 1015.27 798.572 1028.8 787.376C1042.33 776.017 1049.11 760.905 1049.14 742.038C1049.17 728.214 1045.86 716.009 1039.21 705.424C1032.56 694.84 1023.06 686.526 1010.7 680.484C998.511 674.443 983.954 671.406 967.033 671.373L878.438 671.2L878.179 803.916ZM878.577 599.719L956.921 599.872C971.402 599.9 984.261 597.404 995.498 592.384C1006.9 587.202 1015.86 579.9 1022.39 570.48C1029.08 561.06 1032.43 549.762 1032.46 536.588C1032.5 518.535 1026.1 503.966 1013.26 492.882C1000.59 481.797 982.545 476.232 959.115 476.187L878.818 476.03L878.577 599.719Z" fill="black" fill-opacity="0.2"/>
<path d="M707.798 962.195L709.096 296.139L976.453 296.659C1025.58 296.755 1066.54 304.098 1099.33 318.689C1132.12 333.279 1156.75 353.491 1173.22 379.324C1189.69 404.941 1197.9 434.444 1197.83 467.833C1197.78 493.851 1192.52 516.715 1182.05 536.425C1171.58 555.918 1157.2 571.934 1138.92 584.474C1120.85 596.798 1100.18 605.538 1076.92 610.697L1076.9 617.201C1102.33 618.335 1126.12 625.536 1148.26 638.805C1170.63 652.074 1188.74 670.647 1202.61 694.524C1216.47 718.184 1223.37 746.384 1223.31 779.123C1223.24 814.464 1214.37 845.993 1196.71 873.711C1179.27 901.213 1153.47 922.953 1119.31 938.93C1085.16 954.908 1043.08 962.849 993.088 962.751L707.798 962.195ZM849.2 847.342L964.294 847.566C1003.64 847.642 1032.34 840.218 1050.41 825.293C1068.48 810.151 1077.54 790.005 1077.59 764.854C1077.63 746.425 1073.2 730.155 1064.32 716.045C1055.44 701.934 1042.74 690.852 1026.24 682.798C1009.95 674.744 990.505 670.695 967.899 670.651L849.545 670.42L849.2 847.342ZM849.73 575.13L954.391 575.334C973.736 575.371 990.914 572.044 1005.93 565.352C1021.15 558.444 1033.13 548.71 1041.85 536.152C1050.78 523.594 1055.27 508.534 1055.3 490.972C1055.35 466.905 1046.8 447.484 1029.66 432.707C1012.73 417.93 988.621 410.512 957.32 410.451L850.051 410.242L849.73 575.13Z" fill="#A3BE8C"/>
</g>
<defs>
<clipPath id="clip0_215_150">
<rect width="1279" height="1279" rx="639.5" fill="white"/>
</clipPath>
</defs>
</svg>
