<svg width="1279" height="1279" viewBox="0 0 1279 1279" fill="none" xmlns="http://www.w3.org/2000/svg">
<g clip-path="url(#clip0_215_151)">
<rect width="1279" height="1279" rx="639.5" fill="white"/>
<circle cx="638.5" cy="636.956" r="639.5" fill="#ECEFF4"/>
<path d="M308.432 564.59L962.958 569.545L962.053 689.073L547.942 970.712L547.906 975.506L959.861 978.625L958.814 1117.01L304.287 1112.05L305.206 990.608L718.981 711.204L719.025 705.451L307.389 702.335L308.432 564.59Z" fill="#EBCB8B"/>
<path d="M308.432 564.59L962.958 569.545L962.053 689.073L547.942 970.712L547.906 975.506L959.861 978.625L958.814 1117.01L304.287 1112.05L305.206 990.608L718.981 711.204L719.025 705.451L307.389 702.335L308.432 564.59Z" fill="black" fill-opacity="0.1"/>
<path d="M295.777 712.625L295.982 558.625L962.968 569.511L962.808 690.011L720.788 705.189L295.777 712.625Z" fill="#EBCB8B"/>
<path d="M971.417 969.541C971.976 969.531 972.435 969.983 972.434 970.542L972.232 1122.51C972.232 1123.07 971.774 1123.52 971.216 1123.51L306.23 1112.65C305.684 1112.64 305.246 1112.2 305.246 1111.65L305.404 993.076C305.404 992.548 305.815 992.112 306.341 992.079L547.425 976.959L971.417 969.541Z" fill="#EBCB8B"/>
<path d="M889.073 504.213L389.438 503.24L389.827 303.108C389.899 266.336 395.407 235.676 406.352 211.128C417.297 186.58 432.459 168.143 451.837 155.814C471.053 143.486 493.184 137.346 518.231 137.395C537.748 137.433 554.899 141.371 569.684 149.21C584.307 157.049 596.321 167.811 605.728 181.497C614.972 195.02 621.529 210.49 625.398 227.907L630.278 227.917C631.128 208.881 636.53 191.075 646.483 174.498C656.437 157.759 670.369 144.2 688.28 133.821C706.029 123.442 727.182 118.277 751.741 118.325C778.252 118.376 801.903 125.012 822.696 138.232C843.326 151.289 859.634 170.602 871.619 196.17C883.605 221.739 889.562 253.235 889.489 290.658L889.073 504.213ZM802.916 398.366L803.084 312.212C803.141 282.761 797.572 261.273 786.376 247.746C775.017 234.219 759.905 227.437 741.038 227.4C727.214 227.373 715.009 230.685 704.424 237.336C693.84 243.986 685.526 253.488 679.484 265.843C673.443 278.034 670.406 292.591 670.373 309.512L670.2 398.107L802.916 398.366ZM598.719 397.968L598.872 319.624C598.9 305.143 596.404 292.284 591.384 281.047C586.202 269.647 578.9 260.684 569.48 254.157C560.06 247.468 548.762 244.11 535.588 244.085C517.535 244.05 502.966 250.448 491.882 263.281C480.797 275.95 475.232 294 475.187 317.43L475.03 397.727L598.719 397.968Z" fill="#A3BE8C"/>
<path d="M889.073 504.213L389.438 503.24L389.827 303.108C389.899 266.336 395.407 235.676 406.352 211.128C417.297 186.58 432.459 168.143 451.837 155.814C471.053 143.486 493.184 137.346 518.231 137.395C537.748 137.433 554.899 141.371 569.684 149.21C584.307 157.049 596.321 167.811 605.728 181.497C614.972 195.02 621.529 210.49 625.398 227.907L630.278 227.917C631.128 208.881 636.53 191.075 646.483 174.498C656.437 157.759 670.369 144.2 688.28 133.821C706.029 123.442 727.182 118.277 751.741 118.325C778.252 118.376 801.903 125.012 822.696 138.232C843.326 151.289 859.634 170.602 871.619 196.17C883.605 221.739 889.562 253.235 889.489 290.658L889.073 504.213ZM802.916 398.366L803.084 312.212C803.141 282.761 797.572 261.273 786.376 247.746C775.017 234.219 759.905 227.437 741.038 227.4C727.214 227.373 715.009 230.685 704.424 237.336C693.84 243.986 685.526 253.488 679.484 265.843C673.443 278.034 670.406 292.591 670.373 309.512L670.2 398.107L802.916 398.366ZM598.719 397.968L598.872 319.624C598.9 305.143 596.404 292.284 591.384 281.047C586.202 269.647 578.9 260.684 569.48 254.157C560.06 247.468 548.762 244.11 535.588 244.085C517.535 244.05 502.966 250.448 491.882 263.281C480.797 275.95 475.232 294 475.187 317.43L475.03 397.727L598.719 397.968Z" fill="black" fill-opacity="0.2"/>
<path d="M961.195 568.747L295.139 567.449L295.659 300.092C295.755 250.968 303.098 210.009 317.689 177.216C332.279 144.422 352.491 119.791 378.324 103.321C403.941 86.8516 433.444 78.6492 466.833 78.7142C492.851 78.7649 515.715 84.0262 535.425 94.498C554.918 104.969 570.934 119.347 583.474 137.63C595.798 155.695 604.538 176.362 609.697 199.63L616.201 199.642C617.335 174.213 624.536 150.426 637.805 128.28C651.074 105.918 669.647 87.8038 693.524 73.9391C717.184 60.0738 745.384 53.1731 778.123 53.2369C813.464 53.3057 844.993 62.1704 872.711 79.8309C900.213 97.2736 921.953 123.074 937.93 157.231C953.908 191.388 961.849 233.464 961.751 283.457L961.195 568.747ZM846.342 427.345L846.566 312.251C846.642 272.908 839.218 244.202 824.293 226.131C809.151 208.061 789.005 199.001 763.854 198.952C745.425 198.916 729.155 203.34 715.045 212.225C700.934 221.109 689.852 233.803 681.798 250.307C673.744 266.594 669.695 286.04 669.651 308.646L669.42 427L846.342 427.345ZM574.13 426.815L574.334 322.154C574.371 302.809 571.044 285.631 564.352 270.619C557.444 255.39 547.71 243.416 535.152 234.697C522.594 225.761 507.534 221.276 489.972 221.242C465.905 221.195 446.484 229.743 431.707 246.886C416.93 263.811 409.512 287.924 409.451 319.225L409.242 426.493L574.13 426.815Z" fill="#A3BE8C"/>
<circle cx="638.5" cy="636.956" r="639.5" fill="#ECEFF4"/>
<path d="M308.432 564.59L962.958 569.545L962.053 689.073L547.942 970.712L547.906 975.506L959.861 978.625L958.814 1117.01L304.287 1112.05L305.206 990.608L718.981 711.204L719.025 705.451L307.389 702.335L308.432 564.59Z" fill="#EBCB8B"/>
<path d="M308.432 564.59L962.958 569.545L962.053 689.073L547.942 970.712L547.906 975.506L959.861 978.625L958.814 1117.01L304.287 1112.05L305.206 990.608L718.981 711.204L719.025 705.451L307.389 702.335L308.432 564.59Z" fill="black" fill-opacity="0.1"/>
<path d="M295.777 712.625L295.982 558.625L962.968 569.511L962.808 690.011L720.788 705.189L295.777 712.625Z" fill="#EBCB8B"/>
<path d="M971.417 969.541C971.976 969.531 972.435 969.983 972.434 970.542L972.232 1122.51C972.232 1123.07 971.774 1123.52 971.216 1123.51L306.23 1112.65C305.684 1112.64 305.246 1112.2 305.246 1111.65L305.404 993.076C305.404 992.548 305.815 992.112 306.341 992.079L547.425 976.959L971.417 969.541Z" fill="#EBCB8B"/>
<path d="M889.073 504.213L389.438 503.24L389.827 303.108C389.899 266.336 395.407 235.676 406.352 211.128C417.297 186.58 432.459 168.143 451.837 155.814C471.053 143.486 493.184 137.346 518.231 137.395C537.748 137.433 554.899 141.371 569.684 149.21C584.307 157.049 596.321 167.811 605.728 181.497C614.972 195.02 621.529 210.49 625.398 227.907L630.278 227.917C631.128 208.881 636.53 191.075 646.483 174.498C656.437 157.759 670.369 144.2 688.28 133.821C706.029 123.442 727.182 118.277 751.741 118.325C778.252 118.376 801.903 125.012 822.696 138.232C843.326 151.289 859.634 170.602 871.619 196.17C883.605 221.739 889.562 253.235 889.489 290.658L889.073 504.213ZM802.916 398.366L803.084 312.212C803.141 282.761 797.572 261.273 786.376 247.746C775.017 234.219 759.905 227.437 741.038 227.4C727.214 227.373 715.009 230.685 704.424 237.336C693.84 243.986 685.526 253.488 679.484 265.843C673.443 278.034 670.406 292.591 670.373 309.512L670.2 398.107L802.916 398.366ZM598.719 397.968L598.872 319.624C598.9 305.143 596.404 292.284 591.384 281.047C586.202 269.647 578.9 260.684 569.48 254.157C560.06 247.468 548.762 244.11 535.588 244.085C517.535 244.05 502.966 250.448 491.882 263.281C480.797 275.95 475.232 294 475.187 317.43L475.03 397.727L598.719 397.968Z" fill="#A3BE8C"/>
<path d="M889.073 504.213L389.438 503.24L389.827 303.108C389.899 266.336 395.407 235.676 406.352 211.128C417.297 186.58 432.459 168.143 451.837 155.814C471.053 143.486 493.184 137.346 518.231 137.395C537.748 137.433 554.899 141.371 569.684 149.21C584.307 157.049 596.321 167.811 605.728 181.497C614.972 195.02 621.529 210.49 625.398 227.907L630.278 227.917C631.128 208.881 636.53 191.075 646.483 174.498C656.437 157.759 670.369 144.2 688.28 133.821C706.029 123.442 727.182 118.277 751.741 118.325C778.252 118.376 801.903 125.012 822.696 138.232C843.326 151.289 859.634 170.602 871.619 196.17C883.605 221.739 889.562 253.235 889.489 290.658L889.073 504.213ZM802.916 398.366L803.084 312.212C803.141 282.761 797.572 261.273 786.376 247.746C775.017 234.219 759.905 227.437 741.038 227.4C727.214 227.373 715.009 230.685 704.424 237.336C693.84 243.986 685.526 253.488 679.484 265.843C673.443 278.034 670.406 292.591 670.373 309.512L670.2 398.107L802.916 398.366ZM598.719 397.968L598.872 319.624C598.9 305.143 596.404 292.284 591.384 281.047C586.202 269.647 578.9 260.684 569.48 254.157C560.06 247.468 548.762 244.11 535.588 244.085C517.535 244.05 502.966 250.448 491.882 263.281C480.797 275.95 475.232 294 475.187 317.43L475.03 397.727L598.719 397.968Z" fill="black" fill-opacity="0.2"/>
<path d="M961.195 568.747L295.139 567.449L295.659 300.092C295.755 250.968 303.098 210.009 317.689 177.216C332.279 144.422 352.491 119.791 378.324 103.321C403.941 86.8516 433.444 78.6492 466.833 78.7142C492.851 78.7649 515.715 84.0262 535.425 94.498C554.918 104.969 570.934 119.347 583.474 137.63C595.798 155.695 604.538 176.362 609.697 199.63L616.201 199.642C617.335 174.213 624.536 150.426 637.805 128.28C651.074 105.918 669.647 87.8038 693.524 73.9391C717.184 60.0738 745.384 53.1731 778.123 53.2369C813.464 53.3057 844.993 62.1704 872.711 79.8309C900.213 97.2736 921.953 123.074 937.93 157.231C953.908 191.388 961.849 233.464 961.751 283.457L961.195 568.747ZM846.342 427.345L846.566 312.251C846.642 272.908 839.218 244.202 824.293 226.131C809.151 208.061 789.005 199.001 763.854 198.952C745.425 198.916 729.155 203.34 715.045 212.225C700.934 221.109 689.852 233.803 681.798 250.307C673.744 266.594 669.695 286.04 669.651 308.646L669.42 427L846.342 427.345ZM574.13 426.815L574.334 322.154C574.371 302.809 571.044 285.631 564.352 270.619C557.444 255.39 547.71 243.416 535.152 234.697C522.594 225.761 507.534 221.276 489.972 221.242C465.905 221.195 446.484 229.743 431.707 246.886C416.93 263.811 409.512 287.924 409.451 319.225L409.242 426.493L574.13 426.815Z" fill="#A3BE8C"/>
</g>
<defs>
<clipPath id="clip0_215_151">
<rect width="1279" height="1279" rx="639.5" fill="white"/>
</clipPath>
</defs>
</svg>
