<svg width="1279" height="1279" viewBox="0 0 1279 1279" fill="none" xmlns="http://www.w3.org/2000/svg">
<g clip-path="url(#clip0_215_152)">
<rect width="1279" height="1279" rx="639.5" fill="white"/>
<circle cx="639.588" cy="643.5" r="639.5" transform="rotate(90 639.588 643.5)" fill="#2E3440"/>
<path d="M711.954 313.432L706.999 967.959L587.471 967.054L305.832 552.943L301.038 552.907L297.919 964.862L159.536 963.815L164.49 309.288L285.936 310.207L565.34 723.982L571.093 724.026L574.209 312.39L711.954 313.432Z" fill="#EBCB8B"/>
<path d="M711.954 313.432L706.999 967.959L587.471 967.054L305.832 552.943L301.038 552.907L297.919 964.862L159.536 963.815L164.49 309.288L285.936 310.207L565.34 723.982L571.093 724.026L574.209 312.39L711.954 313.432Z" fill="black" fill-opacity="0.1"/>
<path d="M563.918 300.776L717.918 300.981L707.032 967.967L586.532 967.807L571.354 725.787L563.918 300.776Z" fill="#EBCB8B"/>
<path d="M307.002 976.418C307.011 976.977 306.56 977.436 306.001 977.435L154.035 977.233C153.477 977.233 153.027 976.775 153.036 976.217L163.889 311.231C163.898 310.685 164.344 310.247 164.89 310.247L283.467 310.405C283.995 310.405 284.431 310.816 284.464 311.342L299.584 552.426L307.002 976.418Z" fill="#EBCB8B"/>
<path d="M772.331 894.073L773.305 394.438L973.437 394.827C1010.21 394.899 1040.87 400.407 1065.42 411.352C1089.96 422.297 1108.4 437.459 1120.73 456.837C1133.06 476.053 1139.2 498.184 1139.15 523.231C1139.11 542.748 1135.17 559.899 1127.33 574.684C1119.5 589.307 1108.73 601.321 1095.05 610.728C1081.53 619.972 1066.06 626.529 1048.64 630.398L1048.63 635.278C1067.66 636.128 1085.47 641.53 1102.05 651.483C1118.79 661.437 1132.35 675.369 1142.72 693.28C1153.1 711.029 1158.27 732.182 1158.22 756.741C1158.17 783.252 1151.53 806.903 1138.31 827.696C1125.26 848.326 1105.94 864.634 1080.37 876.619C1054.81 888.605 1023.31 894.562 985.887 894.489L772.331 894.073ZM878.179 807.916L964.333 808.084C993.784 808.141 1015.27 802.572 1028.8 791.376C1042.33 780.017 1049.11 764.905 1049.14 746.038C1049.17 732.214 1045.86 720.009 1039.21 709.424C1032.56 698.84 1023.06 690.526 1010.7 684.484C998.511 678.443 983.954 675.406 967.033 675.373L878.438 675.2L878.179 807.916ZM878.577 603.719L956.921 603.872C971.402 603.9 984.261 601.404 995.498 596.384C1006.9 591.202 1015.86 583.9 1022.39 574.48C1029.08 565.06 1032.43 553.762 1032.46 540.588C1032.5 522.535 1026.1 507.966 1013.26 496.882C1000.59 485.797 982.545 480.232 959.115 480.187L878.818 480.03L878.577 603.719Z" fill="#A3BE8C"/>
<path d="M772.331 894.073L773.305 394.438L973.437 394.827C1010.21 394.899 1040.87 400.407 1065.42 411.352C1089.96 422.297 1108.4 437.459 1120.73 456.837C1133.06 476.053 1139.2 498.184 1139.15 523.231C1139.11 542.748 1135.17 559.899 1127.33 574.684C1119.5 589.307 1108.73 601.321 1095.05 610.728C1081.53 619.972 1066.06 626.529 1048.64 630.398L1048.63 635.278C1067.66 636.128 1085.47 641.53 1102.05 651.483C1118.79 661.437 1132.35 675.369 1142.72 693.28C1153.1 711.029 1158.27 732.182 1158.22 756.741C1158.17 783.252 1151.53 806.903 1138.31 827.696C1125.26 848.326 1105.94 864.634 1080.37 876.619C1054.81 888.605 1023.31 894.562 985.887 894.489L772.331 894.073ZM878.179 807.916L964.333 808.084C993.784 808.141 1015.27 802.572 1028.8 791.376C1042.33 780.017 1049.11 764.905 1049.14 746.038C1049.17 732.214 1045.86 720.009 1039.21 709.424C1032.56 698.84 1023.06 690.526 1010.7 684.484C998.511 678.443 983.954 675.406 967.033 675.373L878.438 675.2L878.179 807.916ZM878.577 603.719L956.921 603.872C971.402 603.9 984.261 601.404 995.498 596.384C1006.9 591.202 1015.86 583.9 1022.39 574.48C1029.08 565.06 1032.43 553.762 1032.46 540.588C1032.5 522.535 1026.1 507.966 1013.26 496.882C1000.59 485.797 982.545 480.232 959.115 480.187L878.818 480.03L878.577 603.719Z" fill="black" fill-opacity="0.2"/>
<path d="M707.798 966.195L709.096 300.139L976.453 300.659C1025.58 300.755 1066.54 308.098 1099.33 322.689C1132.12 337.279 1156.75 357.491 1173.22 383.324C1189.69 408.941 1197.9 438.444 1197.83 471.833C1197.78 497.851 1192.52 520.715 1182.05 540.425C1171.58 559.918 1157.2 575.934 1138.92 588.474C1120.85 600.798 1100.18 609.538 1076.92 614.697L1076.9 621.201C1102.33 622.335 1126.12 629.536 1148.26 642.805C1170.63 656.074 1188.74 674.647 1202.61 698.524C1216.47 722.184 1223.37 750.384 1223.31 783.123C1223.24 818.464 1214.37 849.993 1196.71 877.711C1179.27 905.213 1153.47 926.953 1119.31 942.93C1085.16 958.908 1043.08 966.849 993.088 966.751L707.798 966.195ZM849.2 851.342L964.294 851.566C1003.64 851.642 1032.34 844.218 1050.41 829.293C1068.48 814.151 1077.54 794.005 1077.59 768.854C1077.63 750.425 1073.2 734.155 1064.32 720.045C1055.44 705.934 1042.74 694.852 1026.24 686.798C1009.95 678.744 990.505 674.695 967.899 674.651L849.545 674.42L849.2 851.342ZM849.73 579.13L954.391 579.334C973.736 579.371 990.914 576.044 1005.93 569.352C1021.15 562.444 1033.13 552.71 1041.85 540.152C1050.78 527.594 1055.27 512.534 1055.3 494.972C1055.35 470.905 1046.8 451.484 1029.66 436.707C1012.73 421.93 988.621 414.512 957.32 414.451L850.051 414.242L849.73 579.13Z" fill="#A3BE8C"/>
<circle cx="639.588" cy="643.5" r="639.5" transform="rotate(90 639.588 643.5)" fill="#2E3440"/>
<path d="M711.954 313.432L706.999 967.959L587.471 967.054L305.832 552.943L301.038 552.907L297.919 964.862L159.536 963.815L164.49 309.288L285.936 310.207L565.34 723.982L571.093 724.026L574.209 312.39L711.954 313.432Z" fill="#EBCB8B"/>
<path d="M711.954 313.432L706.999 967.959L587.471 967.054L305.832 552.943L301.038 552.907L297.919 964.862L159.536 963.815L164.49 309.288L285.936 310.207L565.34 723.982L571.093 724.026L574.209 312.39L711.954 313.432Z" fill="black" fill-opacity="0.1"/>
<path d="M563.918 300.776L717.918 300.981L707.032 967.967L586.532 967.807L571.354 725.787L563.918 300.776Z" fill="#EBCB8B"/>
<path d="M307.002 976.418C307.011 976.977 306.56 977.436 306.001 977.435L154.035 977.233C153.477 977.233 153.027 976.775 153.036 976.217L163.889 311.231C163.898 310.685 164.344 310.247 164.89 310.247L283.467 310.405C283.995 310.405 284.431 310.816 284.464 311.342L299.584 552.426L307.002 976.418Z" fill="#EBCB8B"/>
<path d="M772.331 894.073L773.305 394.438L973.437 394.827C1010.21 394.899 1040.87 400.407 1065.42 411.352C1089.96 422.297 1108.4 437.459 1120.73 456.837C1133.06 476.053 1139.2 498.184 1139.15 523.231C1139.11 542.748 1135.17 559.899 1127.33 574.684C1119.5 589.307 1108.73 601.321 1095.05 610.728C1081.53 619.972 1066.06 626.529 1048.64 630.398L1048.63 635.278C1067.66 636.128 1085.47 641.53 1102.05 651.483C1118.79 661.437 1132.35 675.369 1142.72 693.28C1153.1 711.029 1158.27 732.182 1158.22 756.741C1158.17 783.252 1151.53 806.903 1138.31 827.696C1125.26 848.326 1105.94 864.634 1080.37 876.619C1054.81 888.605 1023.31 894.562 985.887 894.489L772.331 894.073ZM878.179 807.916L964.333 808.084C993.784 808.141 1015.27 802.572 1028.8 791.376C1042.33 780.017 1049.11 764.905 1049.14 746.038C1049.17 732.214 1045.86 720.009 1039.21 709.424C1032.56 698.84 1023.06 690.526 1010.7 684.484C998.511 678.443 983.954 675.406 967.033 675.373L878.438 675.2L878.179 807.916ZM878.577 603.719L956.921 603.872C971.402 603.9 984.261 601.404 995.498 596.384C1006.9 591.202 1015.86 583.9 1022.39 574.48C1029.08 565.06 1032.43 553.762 1032.46 540.588C1032.5 522.535 1026.1 507.966 1013.26 496.882C1000.59 485.797 982.545 480.232 959.115 480.187L878.818 480.03L878.577 603.719Z" fill="#A3BE8C"/>
<path d="M772.331 894.073L773.305 394.438L973.437 394.827C1010.21 394.899 1040.87 400.407 1065.42 411.352C1089.96 422.297 1108.4 437.459 1120.73 456.837C1133.06 476.053 1139.2 498.184 1139.15 523.231C1139.11 542.748 1135.17 559.899 1127.33 574.684C1119.5 589.307 1108.73 601.321 1095.05 610.728C1081.53 619.972 1066.06 626.529 1048.64 630.398L1048.63 635.278C1067.66 636.128 1085.47 641.53 1102.05 651.483C1118.79 661.437 1132.35 675.369 1142.72 693.28C1153.1 711.029 1158.27 732.182 1158.22 756.741C1158.17 783.252 1151.53 806.903 1138.31 827.696C1125.26 848.326 1105.94 864.634 1080.37 876.619C1054.81 888.605 1023.31 894.562 985.887 894.489L772.331 894.073ZM878.179 807.916L964.333 808.084C993.784 808.141 1015.27 802.572 1028.8 791.376C1042.33 780.017 1049.11 764.905 1049.14 746.038C1049.17 732.214 1045.86 720.009 1039.21 709.424C1032.56 698.84 1023.06 690.526 1010.7 684.484C998.511 678.443 983.954 675.406 967.033 675.373L878.438 675.2L878.179 807.916ZM878.577 603.719L956.921 603.872C971.402 603.9 984.261 601.404 995.498 596.384C1006.9 591.202 1015.86 583.9 1022.39 574.48C1029.08 565.06 1032.43 553.762 1032.46 540.588C1032.5 522.535 1026.1 507.966 1013.26 496.882C1000.59 485.797 982.545 480.232 959.115 480.187L878.818 480.03L878.577 603.719Z" fill="black" fill-opacity="0.2"/>
<path d="M707.798 966.195L709.096 300.139L976.453 300.659C1025.58 300.755 1066.54 308.098 1099.33 322.689C1132.12 337.279 1156.75 357.491 1173.22 383.324C1189.69 408.941 1197.9 438.444 1197.83 471.833C1197.78 497.851 1192.52 520.715 1182.05 540.425C1171.58 559.918 1157.2 575.934 1138.92 588.474C1120.85 600.798 1100.18 609.538 1076.92 614.697L1076.9 621.201C1102.33 622.335 1126.12 629.536 1148.26 642.805C1170.63 656.074 1188.74 674.647 1202.61 698.524C1216.47 722.184 1223.37 750.384 1223.31 783.123C1223.24 818.464 1214.37 849.993 1196.71 877.711C1179.27 905.213 1153.47 926.953 1119.31 942.93C1085.16 958.908 1043.08 966.849 993.088 966.751L707.798 966.195ZM849.2 851.342L964.294 851.566C1003.64 851.642 1032.34 844.218 1050.41 829.293C1068.48 814.151 1077.54 794.005 1077.59 768.854C1077.63 750.425 1073.2 734.155 1064.32 720.045C1055.44 705.934 1042.74 694.852 1026.24 686.798C1009.95 678.744 990.505 674.695 967.899 674.651L849.545 674.42L849.2 851.342ZM849.73 579.13L954.391 579.334C973.736 579.371 990.914 576.044 1005.93 569.352C1021.15 562.444 1033.13 552.71 1041.85 540.152C1050.78 527.594 1055.27 512.534 1055.3 494.972C1055.35 470.905 1046.8 451.484 1029.66 436.707C1012.73 421.93 988.621 414.512 957.32 414.451L850.051 414.242L849.73 579.13Z" fill="#A3BE8C"/>
</g>
<defs>
<clipPath id="clip0_215_152">
<rect width="1279" height="1279" rx="639.5" fill="white"/>
</clipPath>
</defs>
</svg>
