<svg width="1279" height="1279" viewBox="0 0 1279 1279" fill="none" xmlns="http://www.w3.org/2000/svg">
<g clip-path="url(#clip0_215_153)">
<rect width="1279" height="1279" rx="639.5" fill="white"/>
<circle cx="639.5" cy="639.5" r="639.5" fill="#2E3440"/>
<path d="M309.432 567.134L963.958 572.089L963.053 691.617L548.942 973.256L548.906 978.05L960.861 981.169L959.814 1119.55L305.287 1114.6L306.206 993.152L719.981 713.748L720.025 707.995L308.389 704.879L309.432 567.134Z" fill="#EBCB8B"/>
<path d="M309.432 567.134L963.958 572.089L963.053 691.617L548.942 973.256L548.906 978.05L960.861 981.169L959.814 1119.55L305.287 1114.6L306.206 993.152L719.981 713.748L720.025 707.995L308.389 704.879L309.432 567.134Z" fill="black" fill-opacity="0.1"/>
<path d="M296.777 715.169L296.982 561.169L963.968 572.055L963.808 692.554L721.788 707.733L296.777 715.169Z" fill="#EBCB8B"/>
<path d="M972.417 972.085C972.976 972.075 973.435 972.527 973.434 973.086L973.232 1125.05C973.232 1125.61 972.774 1126.06 972.216 1126.05L307.23 1115.2C306.684 1115.19 306.246 1114.74 306.246 1114.2L306.404 995.62C306.404 995.092 306.815 994.656 307.341 994.623L548.425 979.503L972.417 972.085Z" fill="#EBCB8B"/>
<path d="M890.073 506.757L390.438 505.784L390.827 305.652C390.899 268.88 396.407 238.22 407.352 213.672C418.297 189.124 433.459 170.686 452.837 158.358C472.053 146.03 494.184 139.89 519.231 139.939C538.748 139.977 555.899 143.915 570.684 151.754C585.307 159.593 597.321 170.355 606.728 184.041C615.972 197.564 622.529 213.034 626.398 230.451L631.278 230.461C632.128 211.425 637.53 193.619 647.483 177.042C657.437 160.303 671.369 146.743 689.28 136.365C707.029 125.986 728.182 120.821 752.741 120.868C779.252 120.92 802.903 127.556 823.696 140.776C844.326 153.833 860.634 173.146 872.619 198.714C884.605 224.283 890.562 255.779 890.489 293.202L890.073 506.757ZM803.916 400.91L804.084 314.755C804.141 285.305 798.572 263.817 787.376 250.29C776.017 236.763 760.905 229.981 742.038 229.944C728.214 229.917 716.009 233.229 705.424 239.88C694.84 246.53 686.526 256.032 680.484 268.387C674.443 280.578 671.406 295.135 671.373 312.056L671.2 400.651L803.916 400.91ZM599.719 400.512L599.872 322.168C599.9 307.687 597.404 294.828 592.384 283.591C587.202 272.191 579.9 263.228 570.48 256.701C561.06 250.012 549.762 246.654 536.588 246.629C518.535 246.593 503.966 252.992 492.882 265.825C481.797 278.494 476.232 296.544 476.187 319.974L476.03 400.271L599.719 400.512Z" fill="#A3BE8C"/>
<path d="M890.073 506.757L390.438 505.784L390.827 305.652C390.899 268.88 396.407 238.22 407.352 213.672C418.297 189.124 433.459 170.686 452.837 158.358C472.053 146.03 494.184 139.89 519.231 139.939C538.748 139.977 555.899 143.915 570.684 151.754C585.307 159.593 597.321 170.355 606.728 184.041C615.972 197.564 622.529 213.034 626.398 230.451L631.278 230.461C632.128 211.425 637.53 193.619 647.483 177.042C657.437 160.303 671.369 146.743 689.28 136.365C707.029 125.986 728.182 120.821 752.741 120.868C779.252 120.92 802.903 127.556 823.696 140.776C844.326 153.833 860.634 173.146 872.619 198.714C884.605 224.283 890.562 255.779 890.489 293.202L890.073 506.757ZM803.916 400.91L804.084 314.755C804.141 285.305 798.572 263.817 787.376 250.29C776.017 236.763 760.905 229.981 742.038 229.944C728.214 229.917 716.009 233.229 705.424 239.88C694.84 246.53 686.526 256.032 680.484 268.387C674.443 280.578 671.406 295.135 671.373 312.056L671.2 400.651L803.916 400.91ZM599.719 400.512L599.872 322.168C599.9 307.687 597.404 294.828 592.384 283.591C587.202 272.191 579.9 263.228 570.48 256.701C561.06 250.012 549.762 246.654 536.588 246.629C518.535 246.593 503.966 252.992 492.882 265.825C481.797 278.494 476.232 296.544 476.187 319.974L476.03 400.271L599.719 400.512Z" fill="black" fill-opacity="0.2"/>
<path d="M962.195 571.291L296.139 569.993L296.659 302.636C296.755 253.512 304.098 212.553 318.689 179.76C333.279 146.966 353.491 122.335 379.324 105.865C404.941 89.3955 434.444 81.1931 467.833 81.2582C493.851 81.3089 516.715 86.5701 536.425 97.042C555.918 107.513 571.934 121.891 584.474 140.174C596.798 158.239 605.538 178.906 610.697 202.174L617.201 202.186C618.335 176.757 625.536 152.969 638.805 130.824C652.074 108.462 670.647 90.3478 694.524 76.483C718.184 62.6178 746.384 55.717 779.123 55.7808C814.464 55.8497 845.993 64.7143 873.711 82.3748C901.213 99.8175 922.953 125.618 938.93 159.775C954.908 193.932 962.849 236.008 962.751 286.001L962.195 571.291ZM847.342 429.889L847.566 314.795C847.642 275.452 840.218 246.746 825.293 228.675C810.151 210.605 790.005 201.545 764.854 201.496C746.425 201.46 730.155 205.884 716.045 214.769C701.934 223.653 690.852 236.347 682.798 252.851C674.744 269.138 670.695 288.584 670.651 311.19L670.42 429.544L847.342 429.889ZM575.13 429.359L575.334 324.698C575.371 305.353 572.044 288.174 565.352 273.163C558.444 257.934 548.71 245.96 536.152 237.241C523.594 228.305 508.534 223.82 490.972 223.785C466.905 223.739 447.484 232.287 432.707 249.43C417.93 266.355 410.512 290.468 410.451 321.769L410.242 429.037L575.13 429.359Z" fill="#A3BE8C"/>
<circle cx="639.5" cy="639.5" r="639.5" fill="#2E3440"/>
<path d="M309.432 567.134L963.958 572.089L963.053 691.617L548.942 973.256L548.906 978.05L960.861 981.169L959.814 1119.55L305.287 1114.6L306.206 993.152L719.981 713.748L720.025 707.995L308.389 704.879L309.432 567.134Z" fill="#EBCB8B"/>
<path d="M309.432 567.134L963.958 572.089L963.053 691.617L548.942 973.256L548.906 978.05L960.861 981.169L959.814 1119.55L305.287 1114.6L306.206 993.152L719.981 713.748L720.025 707.995L308.389 704.879L309.432 567.134Z" fill="black" fill-opacity="0.1"/>
<path d="M296.777 715.169L296.982 561.169L963.968 572.055L963.808 692.554L721.788 707.733L296.777 715.169Z" fill="#EBCB8B"/>
<path d="M972.417 972.085C972.976 972.075 973.435 972.527 973.434 973.086L973.232 1125.05C973.232 1125.61 972.774 1126.06 972.216 1126.05L307.23 1115.2C306.684 1115.19 306.246 1114.74 306.246 1114.2L306.404 995.62C306.404 995.092 306.815 994.656 307.341 994.623L548.425 979.503L972.417 972.085Z" fill="#EBCB8B"/>
<path d="M890.073 506.757L390.438 505.784L390.827 305.652C390.899 268.88 396.407 238.22 407.352 213.672C418.297 189.124 433.459 170.686 452.837 158.358C472.053 146.03 494.184 139.89 519.231 139.939C538.748 139.977 555.899 143.915 570.684 151.754C585.307 159.593 597.321 170.355 606.728 184.041C615.972 197.564 622.529 213.034 626.398 230.451L631.278 230.461C632.128 211.425 637.53 193.619 647.483 177.042C657.437 160.303 671.369 146.743 689.28 136.365C707.029 125.986 728.182 120.821 752.741 120.868C779.252 120.92 802.903 127.556 823.696 140.776C844.326 153.833 860.634 173.146 872.619 198.714C884.605 224.283 890.562 255.779 890.489 293.202L890.073 506.757ZM803.916 400.91L804.084 314.755C804.141 285.305 798.572 263.817 787.376 250.29C776.017 236.763 760.905 229.981 742.038 229.944C728.214 229.917 716.009 233.229 705.424 239.88C694.84 246.53 686.526 256.032 680.484 268.387C674.443 280.578 671.406 295.135 671.373 312.056L671.2 400.651L803.916 400.91ZM599.719 400.512L599.872 322.168C599.9 307.687 597.404 294.828 592.384 283.591C587.202 272.191 579.9 263.228 570.48 256.701C561.06 250.012 549.762 246.654 536.588 246.629C518.535 246.593 503.966 252.992 492.882 265.825C481.797 278.494 476.232 296.544 476.187 319.974L476.03 400.271L599.719 400.512Z" fill="#A3BE8C"/>
<path d="M890.073 506.757L390.438 505.784L390.827 305.652C390.899 268.88 396.407 238.22 407.352 213.672C418.297 189.124 433.459 170.686 452.837 158.358C472.053 146.03 494.184 139.89 519.231 139.939C538.748 139.977 555.899 143.915 570.684 151.754C585.307 159.593 597.321 170.355 606.728 184.041C615.972 197.564 622.529 213.034 626.398 230.451L631.278 230.461C632.128 211.425 637.53 193.619 647.483 177.042C657.437 160.303 671.369 146.743 689.28 136.365C707.029 125.986 728.182 120.821 752.741 120.868C779.252 120.92 802.903 127.556 823.696 140.776C844.326 153.833 860.634 173.146 872.619 198.714C884.605 224.283 890.562 255.779 890.489 293.202L890.073 506.757ZM803.916 400.91L804.084 314.755C804.141 285.305 798.572 263.817 787.376 250.29C776.017 236.763 760.905 229.981 742.038 229.944C728.214 229.917 716.009 233.229 705.424 239.88C694.84 246.53 686.526 256.032 680.484 268.387C674.443 280.578 671.406 295.135 671.373 312.056L671.2 400.651L803.916 400.91ZM599.719 400.512L599.872 322.168C599.9 307.687 597.404 294.828 592.384 283.591C587.202 272.191 579.9 263.228 570.48 256.701C561.06 250.012 549.762 246.654 536.588 246.629C518.535 246.593 503.966 252.992 492.882 265.825C481.797 278.494 476.232 296.544 476.187 319.974L476.03 400.271L599.719 400.512Z" fill="black" fill-opacity="0.2"/>
<path d="M962.195 571.291L296.139 569.993L296.659 302.636C296.755 253.512 304.098 212.553 318.689 179.76C333.279 146.966 353.491 122.335 379.324 105.865C404.941 89.3955 434.444 81.1931 467.833 81.2582C493.851 81.3089 516.715 86.5701 536.425 97.042C555.918 107.513 571.934 121.891 584.474 140.174C596.798 158.239 605.538 178.906 610.697 202.174L617.201 202.186C618.335 176.757 625.536 152.969 638.805 130.824C652.074 108.462 670.647 90.3478 694.524 76.483C718.184 62.6178 746.384 55.717 779.123 55.7808C814.464 55.8497 845.993 64.7143 873.711 82.3748C901.213 99.8175 922.953 125.618 938.93 159.775C954.908 193.932 962.849 236.008 962.751 286.001L962.195 571.291ZM847.342 429.889L847.566 314.795C847.642 275.452 840.218 246.746 825.293 228.675C810.151 210.605 790.005 201.545 764.854 201.496C746.425 201.46 730.155 205.884 716.045 214.769C701.934 223.653 690.852 236.347 682.798 252.851C674.744 269.138 670.695 288.584 670.651 311.19L670.42 429.544L847.342 429.889ZM575.13 429.359L575.334 324.698C575.371 305.353 572.044 288.174 565.352 273.163C558.444 257.934 548.71 245.96 536.152 237.241C523.594 228.305 508.534 223.82 490.972 223.785C466.905 223.739 447.484 232.287 432.707 249.43C417.93 266.355 410.512 290.468 410.451 321.769L410.242 429.037L575.13 429.359Z" fill="#A3BE8C"/>
</g>
<defs>
<clipPath id="clip0_215_153">
<rect width="1279" height="1279" rx="639.5" fill="white"/>
</clipPath>
</defs>
</svg>
